<?xml version="1.0" encoding="iso-8859-1"?>
<!-- Uploaded to: SVG Repo, www.svgrepo.com, Generator: SVG Repo Mixer Tools -->
<!DOCTYPE svg PUBLIC "-//W3C//DTD SVG 1.1//EN" "http://www.w3.org/Graphics/SVG/1.1/DTD/svg11.dtd">
<svg fill="#000000" version="1.1" id="Capa_1" xmlns="http://www.w3.org/2000/svg" xmlns:xlink="http://www.w3.org/1999/xlink" 
	 width="800px" height="800px" viewBox="0 0 31.801 31.801"
	 xml:space="preserve">
<g>
	<path d="M30.939,3.947C28.314,1.55,22.495,0,16.112,0C10.033,0,4.658,1.371,0.97,3.861C0.671,4.066,0.438,4.228,0.396,6.17
		c-0.091,4.152,1.17,14.918,14.782,25.18l0.845,0.451l0.593-0.445c12.297-9.271,14.53-18.971,14.768-23.93
		C31.476,5.472,31.327,4.302,30.939,3.947z M18.693,27.052c0.195-1.336,0.228-3.262-0.805-4.676c-1.354-1.854-3.1-6.689,0.035-8.402
		c0,0,1.729,2.742,4.054,3.027c0,0,0.271,2.916,3.08,1.313c0.747-0.43,1.026-2.229,0.271-3.372l-0.596-0.912
		c0,0-1.566-5.143-2.974-6.629c0,0-0.486-2.571,0-3.771c0,0-0.864,0.517-1.135,1.029c0,0,0.107-1.543,0.379-1.828
		c0,0-2.23,0.734-2.812,2.687c0,0-5.351-1.656-9.726,2.795c0,0,1.675-0.455,2.269-0.226c0,0-5.114,2.961-6.088,6.729
		c0,0,1.494-0.957,2.036-0.787c0,0-1.135,2.134-0.044,5.531C2.107,12.516,2.317,6.684,2.454,5.276C5.766,3.19,10.708,2,16.11,2
		c5.608,0,10.843,1.278,13.222,3.202C29.505,6.925,29.921,16.929,18.693,27.052z"/>
</g>
</svg>